<svg width="349" height="117" viewBox="0 0 349 117" fill="none" xmlns="http://www.w3.org/2000/svg">
<mask id="mask0_23_2805" style="mask-type:luminance" maskUnits="userSpaceOnUse" x="0" y="0" width="349" height="96">
<path d="M0 0H349V96H0V0Z" fill="white"/>
</mask>
<g mask="url(#mask0_23_2805)">
<path d="M0 0H349V96H0V0Z" stroke="black" stroke-width="5.99788"/>
</g>
<mask id="mask1_23_2805" style="mask-type:luminance" maskUnits="userSpaceOnUse" x="9" y="9" width="166" height="79">
<path d="M9.42706 9.03125H174.458V87.0625H9.42706V9.03125Z" fill="white"/>
</mask>
<g mask="url(#mask1_23_2805)">
<path d="M9.42706 9.03125H174.703V87.1719H9.42706V9.03125Z" fill="black"/>
</g>
<path d="M57.6498 60.689C64.0196 60.689 69.1863 56.8348 70.7592 50.991H67.2748C65.9311 54.9233 62.2227 57.3973 57.7644 57.3973C51.9206 57.3973 47.7644 53.1629 47.7644 47.0952C47.7644 41.0327 51.9206 36.7983 57.7644 36.7983C62.1081 36.7983 65.6654 39.1213 67.0144 42.9025H70.5352C68.8113 37.1369 63.8321 33.5015 57.6498 33.5015C49.9363 33.5015 44.3946 39.1942 44.3946 47.0952C44.3946 55.0015 49.9363 60.689 57.6498 60.689Z" fill="white"/>
<path d="M79.4358 60.2046H82.7327V33.991H79.4358V60.2046Z" fill="white"/>
<path d="M93.2139 60.2046H96.4743V39.6837L110.969 60.2046H114.037V33.991H110.818V54.5119L96.3233 33.991H93.2139V60.2046Z" fill="white"/>
<path d="M124.513 60.2046H140.841V57.1317H127.81V48.3712H139.497V45.3348H127.81V37.0587H140.429V33.991H124.513V60.2046Z" fill="white"/>
<path d="M149.934 60.2046H153.231V51.59H158.814C164.731 51.59 168.549 48.1837 168.549 42.7879C168.549 37.4337 164.731 33.991 158.814 33.991H149.934V60.2046ZM153.231 48.5223V37.1369H158.736C162.97 37.1369 165.179 39.0848 165.179 42.8296C165.179 46.5744 162.97 48.5223 158.736 48.5223H153.231Z" fill="white"/>
<path d="M193.109 60.2046H200.672V33.991H193.109V43.3921H185.021V33.991H177.453V60.2046H185.021V50.3556H193.109V60.2046Z" fill="black"/>
<path d="M206.205 60.2046H213.773V33.991H206.205V60.2046Z" fill="black"/>
<path d="M219.308 60.2046H237.584V53.1994H226.876V33.991H219.308V60.2046Z" fill="black"/>
<path d="M241.284 60.2046H259.675V54.0275H248.774V49.9806H258.247V43.9129H248.774V40.0952H259.258V33.991H241.284V60.2046Z" fill="black"/>
<path d="M273.522 60.7671C280.037 60.7671 283.897 57.6942 283.897 52.5275C283.897 48.1837 281.084 45.6369 274.72 44.215C271.35 43.465 270.116 42.6421 270.116 41.2931C270.116 40.0171 271.235 39.2306 272.996 39.2306C275.095 39.2306 276.293 40.3192 276.293 42.3035H283.407C283.407 36.9129 279.287 33.4285 272.845 33.4285C266.668 33.4285 262.85 36.4962 262.85 41.4442C262.85 45.8608 265.73 48.5952 271.647 49.7202C274.834 50.3556 276.366 51.3296 276.366 52.8244C276.366 54.1369 275.246 54.8869 273.407 54.8869C271.235 54.8869 269.965 53.7254 269.965 51.7046H262.662C262.662 57.3608 266.704 60.7671 273.522 60.7671Z" fill="black"/>
<path d="M124.113 115.925V106.383H129.926V107.32H125.259V110.675H129.238V111.612H125.259V115.925H124.113Z" fill="black"/>
<path d="M134.549 115.925V106.383H135.695V115.925H134.549Z" fill="black"/>
<path d="M140.878 115.925V106.383H142.024V115.008H146.482V115.925H140.878Z" fill="black"/>
<path d="M151.191 115.925V106.383H152.525L155.962 113.029L159.379 106.383H160.733V115.925H159.587V108.425L156.4 114.57H155.525L152.337 108.445V115.925H151.191Z" fill="black"/>
<path d="M168.925 116.091C168.227 116.091 167.618 115.966 167.092 115.716C166.576 115.456 166.181 115.102 165.905 114.654C165.623 114.195 165.488 113.669 165.488 113.07H166.675C166.675 113.435 166.759 113.774 166.925 114.091C167.102 114.414 167.363 114.664 167.696 114.841C168.03 115.024 168.436 115.112 168.925 115.112C169.576 115.112 170.076 114.961 170.425 114.654C170.785 114.352 170.967 113.966 170.967 113.508C170.967 113.123 170.884 112.815 170.717 112.591C170.55 112.357 170.326 112.169 170.05 112.029C169.769 111.878 169.451 111.748 169.092 111.633C168.743 111.524 168.368 111.399 167.967 111.258C167.227 111.008 166.681 110.695 166.321 110.32C165.972 109.945 165.8 109.456 165.8 108.841C165.8 108.331 165.915 107.878 166.155 107.487C166.405 107.086 166.748 106.774 167.196 106.55C167.655 106.331 168.186 106.216 168.8 106.216C169.41 106.216 169.936 106.336 170.384 106.57C170.842 106.794 171.196 107.107 171.446 107.508C171.696 107.914 171.826 108.362 171.842 108.862H170.634C170.634 108.602 170.561 108.341 170.425 108.091C170.285 107.831 170.076 107.612 169.8 107.445C169.519 107.279 169.175 107.195 168.759 107.195C168.243 107.195 167.821 107.336 167.488 107.612C167.155 107.878 166.988 108.253 166.988 108.737C166.988 109.143 167.102 109.456 167.342 109.675C167.576 109.899 167.905 110.081 168.321 110.216C168.738 110.357 169.217 110.518 169.759 110.695C170.217 110.862 170.623 111.06 170.988 111.279C171.347 111.487 171.634 111.768 171.842 112.112C172.05 112.461 172.155 112.899 172.155 113.425C172.155 113.883 172.035 114.315 171.8 114.716C171.561 115.123 171.201 115.456 170.717 115.716C170.243 115.966 169.644 116.091 168.925 116.091Z" fill="black"/>
<path d="M187.883 116.091C186.951 116.091 186.143 115.883 185.466 115.466C184.784 115.05 184.258 114.477 183.883 113.737C183.518 113.003 183.341 112.143 183.341 111.154C183.341 110.185 183.518 109.331 183.883 108.591C184.258 107.857 184.784 107.279 185.466 106.862C186.143 106.435 186.951 106.216 187.883 106.216C188.977 106.216 189.867 106.482 190.55 107.008C191.227 107.539 191.664 108.268 191.862 109.195H190.591C190.451 108.602 190.154 108.128 189.695 107.779C189.247 107.419 188.643 107.237 187.883 107.237C187.201 107.237 186.602 107.399 186.091 107.716C185.591 108.024 185.201 108.466 184.925 109.05C184.643 109.633 184.508 110.336 184.508 111.154C184.508 111.977 184.643 112.675 184.925 113.258C185.201 113.841 185.591 114.294 186.091 114.612C186.602 114.919 187.201 115.07 187.883 115.07C188.643 115.07 189.247 114.899 189.695 114.55C190.154 114.206 190.451 113.737 190.591 113.154H191.862C191.664 114.07 191.227 114.794 190.55 115.32C189.867 115.836 188.977 116.091 187.883 116.091Z" fill="black"/>
<path d="M196.661 115.925V106.383H197.807V115.008H202.265V115.925H196.661Z" fill="black"/>
<path d="M210.432 116.091C209.776 116.091 209.182 115.966 208.641 115.716C208.11 115.456 207.688 115.05 207.37 114.508C207.047 113.956 206.891 113.253 206.891 112.404V106.383H208.037V112.425C208.037 113.357 208.255 114.029 208.703 114.445C209.162 114.862 209.745 115.07 210.453 115.07C211.172 115.07 211.75 114.862 212.182 114.445C212.625 114.029 212.849 113.357 212.849 112.425V106.383H213.995V112.404C213.995 113.253 213.834 113.956 213.516 114.508C213.193 115.05 212.766 115.456 212.224 115.716C211.693 115.966 211.099 116.091 210.432 116.091Z" fill="black"/>
<path d="M219.069 115.925V106.383H222.423C223.1 106.383 223.658 106.498 224.09 106.716C224.533 106.925 224.866 107.216 225.09 107.591C225.309 107.956 225.423 108.362 225.423 108.82C225.423 109.435 225.257 109.919 224.923 110.279C224.59 110.628 224.184 110.873 223.715 111.008C224.074 111.065 224.402 111.206 224.694 111.425C224.986 111.649 225.215 111.925 225.382 112.258C225.548 112.581 225.632 112.935 225.632 113.32C225.632 113.81 225.512 114.253 225.277 114.654C225.038 115.044 224.684 115.357 224.215 115.591C223.757 115.815 223.199 115.925 222.548 115.925H219.069ZM220.215 110.55H222.34C222.949 110.55 223.413 110.414 223.736 110.133C224.069 109.841 224.236 109.44 224.236 108.925C224.236 108.456 224.074 108.07 223.757 107.779C223.434 107.487 222.949 107.341 222.298 107.341H220.215V110.55ZM220.215 114.966H222.423C223.074 114.966 223.574 114.815 223.923 114.508C224.283 114.206 224.465 113.779 224.465 113.237C224.465 112.711 224.277 112.289 223.902 111.966C223.527 111.633 223.017 111.466 222.382 111.466H220.215V114.966Z" fill="black"/>
</svg>
